<svg xmlns="http://www.w3.org/2000/svg" viewBox="0 0 176 192.22"><defs><style>.cls-1{fill:#ffbe73;}.cls-1,.cls-2,.cls-3,.cls-4,.cls-5{stroke:#000;stroke-miterlimit:10;}.cls-1,.cls-2,.cls-3,.cls-4{stroke-width:2px;}.cls-2{fill:#e6e6e6;}.cls-3,.cls-5{fill:none;}.cls-4{fill:#505050;}</style></defs><g id="Calque_2" data-name="Calque 2"><g id="Calque_4" data-name="Calque 4"><path class="cls-1" d="M129.89,141.08c-1.56,10.87-5.39,18.87-8.66,25.69a42.6,42.6,0,0,1-3.54,6.32c-.49.71-.88,1.2-1.23,1.66-4.46,5.71-6.68,8.57-7.19,9.06a34.42,34.42,0,0,1-8.29,6c-.29.14-.42.22-.61.3-4,1.75-7.92,1.13-12.59.39a29,29,0,0,1-10.23-3.16c-3.69-2-5.2-4.11-9.84-9.09-7.37-7.91-7.9-7.31-10.63-10.67-4.28-5.27-5.93-11.09-9-22.52a145.18,145.18,0,0,1-4.33-30.43c-.1-2.66-.19-6.92,2.55-9.57,1-1,1.61-1,7.69-3.08C59.6,100,59.56,99.85,63,98.8c1.48-.46,3.35-1,7.08-2s5.75-1.56,7.48-2c0,0,5.07-1.23,10.23-2,2-.29,30.29-4.29,39.36,10.27a29.91,29.91,0,0,1,3.54,9.09c.94,4.47.49,7.53,0,13.84C129.76,137.79,130.63,136,129.89,141.08Z"/><path class="cls-2" d="M46.85,58.49c0-.67,0-1.62,0-2.77-.25-10.78-3.37-17.27-2.36-17.78C45.93,37.21,53,50.19,54.72,49.4c1.29-.59-2.37-8-2.36-19.76A57.49,57.49,0,0,1,53.94,17c1.17-5.84,1.83-5.93,2-5.92.48,0,.74,1.49,1.58,5.92,1,5.09,1.44,7.64,1.57,7.91,2.09,4.22,6.61,2.78,12.6,7.11s7.84,10.3,8.65,9.88-1.66-4.18-2-10.27c-.14-2.74.56-5.95,2-12.26,1.82-8.17,2.76-12.26,3.94-12.25.85,0,1.12,2,2.75,6.33,1.4,3.68,3.29,8.58,6.69,12.64,1.19,1.42,5.93,7.08,9.06,5.93,2.18-.8,1.59-4.18,5.11-9.88,1.15-1.86,3.73-5.55,4.71-5.13,1.68.72-2.18,13.25-1.56,13.43.41.12,2-5.44,6.3-11.86,1.78-2.69,3-4.61,3.83-4.37,2.69.85-4.69,25.61-.68,27.29,1.83.78,6.16-3.51,8.26-7.5,1.07-2.05,1.35-3.61,1.57-3.56.51.12-.22,8.14-2.75,17-1.75,6.12-3.08,8.18-2.36,8.7,1.44,1,9.54-5.34,14.09-14.54,3.37-6.8,3.23-12,4-11.94,1.15.1,3.27,11.68-.79,23.32C139,63,132.24,69.26,133,70c.5.44,3-2.25,9.84-6.72A35.78,35.78,0,0,1,150,59.28a45.71,45.71,0,0,1,8.27-2c4.34-.8,6.51-1.21,6.69-.79.66,1.58-17.86,10.7-17.32,11.86.28.61,5.64-1.42,5.9-.79s-4.06,2.11-7.87,6.32c-1.67,1.85-4.3,5.36-3.54,6.32,1.56,2,15.82-8.49,17.32-6.71.71.85-1.52,4.53-11,14.62a75.74,75.74,0,0,0,10.23-.4c5.66-.6,8.72-1.56,9-.79s-3.54,3-9.84,7.91-10.9,8.39-10.23,9.88,7.43,1,11.81-2c.92-.64,1.53-1.24,1.57-1.19s-3.6,5.39-9.44,7.51c-4,1.45-7.42.87-7.48,1.58s2.62,1.47,5.51,2.37c2.44.77,3.86,1,3.84,1.25,0,.4-4.85-.77-9.75.73a17.48,17.48,0,0,0-7.08,4.35c-69.82,10.84-96.59,10.44-98.39,4-.55-2,.28-8.32-2-9.09-1.52-.52-5.36,1.2-6.3,1.58h0c-6.35,2.3-9.4,5.67-10,5.14s1-3.58,9.6-15c-14.81.57-18.36-.24-18.5-1.18-.27-1.89,13-4.24,13-8.3,0-2-3.18-2.54-9-7.12-4.22-3.28-9-8-8.27-9.09.55-.86,3.77,1.3,9.45,2S29.45,82,30.32,79c.57-1.92-2.13-3.14-4.72-7.51-1.27-2.14-2.27-4.63-3.54-14.23-1.42-10.74-2.49-18.86-.79-19.36s3.34,6.88,10.23,13A33.46,33.46,0,0,0,46.85,58.49Z"/><path class="cls-3" d="M106.5,136.09,97.87,131c-2.78-1.63-6-3.33-9.07-2.48a10.32,10.32,0,0,0-3.17,1.65c-1.51,1.07-2.93,2.28-4.53,3.2a15.24,15.24,0,0,1-7.39,2"/><path class="cls-3" d="M73.26,161.83a7,7,0,0,1,3.06,1.53c3.55-.61,7-1.41,10.54-1.73,6-.54,12.26-.65,18,1.31"/><path class="cls-3" d="M85.49,151a3.8,3.8,0,0,1,4.1-1.23"/><path class="cls-4" d="M132,129.76a11.05,11.05,0,0,0-6-.86c-3.32.52-4.73,2.56-8.68,4.67a22.89,22.89,0,0,1-7.87,2.77c-8,.75-10.14-8.23-17.77-8.3-5.79,0-6.36,5.07-15.81,6.87-1.08.2-4,.23-9.85.29-12.73.12-16.07-1-18-1.72a28.8,28.8,0,0,1-7.66-4.38,4.91,4.91,0,0,0-.19-3.43c-.56-1.12-1.34-1.23-2-2.37s-.39-2.14-.39-4c0-3.21-.82-4.13-.79-5.61.1-4,6.31-7.06,8.33-8,37.1-17.56,65-12,65-12a85.11,85.11,0,0,1,23.66,8,9.42,9.42,0,0,1,3,6.3c0,3.69-3.07,4.3-3.66,8.59s2.11,6.54.67,10.28A7.87,7.87,0,0,1,132,129.76Z"/><path class="cls-3" d="M94.58,151.7a1.68,1.68,0,0,1,.85-1.79,4.92,4.92,0,0,1,2-.51"/><path class="cls-3" d="M93.64,129.24a16.27,16.27,0,0,0,0,5.78,49.09,49.09,0,0,0,1.44,6.49"/><path class="cls-3" d="M41.24,113.9c4.54-.37,8.62-2.83,12.5-5.23l1.6-1"/><path class="cls-3" d="M53.35,114.58c3.11.4,5.68-2.48,8.75-3.1"/><path class="cls-3" d="M72,106.22A8.81,8.81,0,0,1,81,109.54"/><path class="cls-3" d="M72,112.84c2.38-.94,5,.8,6.48,2.91"/><path class="cls-3" d="M69.36,125.62a22.7,22.7,0,0,0,7-3.21"/><path class="cls-3" d="M44.1,116.49a8.07,8.07,0,0,0-2,4.59.91.91,0,0,0,.15.71c.22.26.62.21.95.16A7.75,7.75,0,0,1,49,123.43"/><path class="cls-3" d="M103.5,121c2.31-.53,4.61.72,6.64,1.92a6.68,6.68,0,0,1,1.78,1.33,2.26,2.26,0,0,1,.53,2.08"/><path class="cls-3" d="M103.75,109.54a12,12,0,0,1-4.26,5.64"/><path class="cls-3" d="M97.29,109a3.57,3.57,0,0,1,1.22-1.16l7.15-4.93a2.74,2.74,0,0,1,2-.69"/><path class="cls-3" d="M115.84,108.61a9,9,0,0,1,5.92,2.76"/><path class="cls-3" d="M115.17,98.69l4.25,1.65,3.58,1.39c3.94,1.54,7.88,3.07,11.78,4.7.9.37,1.94.93,2,1.91"/><path class="cls-3" d="M122.34,104.88c.31,1.78,1.92,3,3.45,4a18.26,18.26,0,0,0,8.21,3.21"/><path class="cls-3" d="M129.65,115.2c1.06-.18,2.38-.27,3,.62"/><path class="cls-3" d="M121.69,128.36c3,.15,6.33.21,8.74-1.63.95-.73,1.9-1.8,3.1-1.63"/><path class="cls-3" d="M49.21,128.84a48.67,48.67,0,0,0,17.95,2"/><path class="cls-3" d="M87.53,99.46c4.41-.64,8.85-1.12,13.29-1.46"/><path class="cls-3" d="M29.84,77.53c1.54.18,2.33,1.89,2.84,3.36"/><path class="cls-3" d="M23.89,95.7a26.43,26.43,0,0,0,10.58,1.43"/><path class="cls-3" d="M27.45,105.81a5.27,5.27,0,0,1,4.22,2.35"/><path class="cls-3" d="M93.56,26.74a33.94,33.94,0,0,1,3,6.6,24.39,24.39,0,0,1,1.26,11"/><path class="cls-3" d="M61.2,27.29l5.14,11"/><path class="cls-3" d="M46.73,56.81a35.57,35.57,0,0,1,3.65,10.62"/><path class="cls-3" d="M48.73,96.64l-1.21-5.36a5.26,5.26,0,0,0-.47-1.47,7.47,7.47,0,0,0-1.2-1.44c-2.54-2.67-3.83-6.29-4.76-9.86S39.53,71.25,38,67.89"/><path class="cls-3" d="M47,100.66c-.67-.72-1.42-1.37-2.14-2s-1.71-1.65-2.55-2.5l-8.49-8.55"/><path class="cls-3" d="M68.6,93.82C60.48,91.62,57,81.64,51.9,75.73"/><path class="cls-3" d="M62.27,54.08a21.12,21.12,0,0,0,1.37,7.24c2.55,8.13,5.16,16.36,9.67,23.59"/><path class="cls-3" d="M75.45,63.08l.13,10a16.93,16.93,0,0,0,.68,5.5,21.18,21.18,0,0,0,1.58,3.16,40.52,40.52,0,0,1,3.92,10"/><path class="cls-3" d="M90.62,49.22a52.06,52.06,0,0,1-.29,10.06c-.25,2-.62,3.91-.93,5.87a116.12,116.12,0,0,0-1.29,24.43"/><path class="cls-3" d="M111.46,56c-.3,2.46-2.29,4.32-3.47,6.5-.66,1.2-1.08,2.52-1.62,3.78-2.08,4.83-6,8.71-8,13.56A19.52,19.52,0,0,0,97,89.08"/><path class="cls-3" d="M98,88a21.76,21.76,0,0,0,3.12-8"/><path class="cls-3" d="M107.25,71.13c-.51,2.72-.91,5.47-1.2,8.23"/><path class="cls-3" d="M113.72,93.54a29.34,29.34,0,0,0,2.66-3.6l2.4-3.65"/><path class="cls-3" d="M123.06,96.41a4.2,4.2,0,0,1,.66-2l4.17-7.79"/><path class="cls-3" d="M142.24,70.62a8.58,8.58,0,0,0,5.33-2"/><path class="cls-3" d="M138.85,82.27a8.33,8.33,0,0,0,4.88-2.13"/><path class="cls-3" d="M145.64,89.06a8,8,0,0,0,5.33-.92"/><path class="cls-3" d="M132.1,100.81c2.66-2.56,6.27-3.82,9.76-5l7.92-2.71"/><path class="cls-3" d="M110,32.66c.73,4.53-2.11,9.18-1,13.63"/><path class="cls-3" d="M101.14,31.85c1.39,1.21,1.59,3.25,1.93,5.07a21.36,21.36,0,0,0,1.88,5.6"/><path class="cls-3" d="M119.76,40.45a17,17,0,0,0,2.54,4.94"/><path class="cls-3" d="M147.32,68.87a22.17,22.17,0,0,0-5.54,1.8"/><path class="cls-3" d="M52.79,19.8a21.68,21.68,0,0,1,2.88-10,24.07,24.07,0,0,1,1,6.4"/><path class="cls-3" d="M24,41.29c-.58-2.25-3-3.16-3.36-5.45v7"/><path class="cls-3" d="M10.13,85.49a37.82,37.82,0,0,1-5-6.6,7.23,7.23,0,0,0,5,2.17"/><path class="cls-3" d="M15.17,106.37l-6.82-2a3.3,3.3,0,0,1,2-.07,4.82,4.82,0,0,0,3.77-1.3"/><path class="cls-3" d="M20.4,118.21a9,9,0,0,1-1.62,4.38A15.44,15.44,0,0,1,22.26,120"/><path class="cls-3" d="M44.8,41l-1.25-3.77a12.55,12.55,0,0,1,3.68,3"/><path class="cls-3" d="M80.43,18a7.82,7.82,0,0,1,.43-3.83c.24-.61.55-1.2.77-1.82a22.85,22.85,0,0,0,.66-2.59,34.8,34.8,0,0,1,2.31-6A56.79,56.79,0,0,0,86.07,11"/><path class="cls-3" d="M84.19,6.84a6,6,0,0,1-.1-1.27,6.55,6.55,0,0,0-.46,2.35,5.36,5.36,0,0,1,.2-2.07A1.9,1.9,0,0,1,84.1,7.3"/><path class="cls-3" d="M107.81,22a17.52,17.52,0,0,1,6-6l-1.91,6"/><path class="cls-3" d="M117.79,18.09c.17-2.3,3.24-3.37,3.82-5.6a18.41,18.41,0,0,1-.54,5.33"/><path class="cls-3" d="M142.12,34.42a20.74,20.74,0,0,0,.81-5.75,8.64,8.64,0,0,0,.73,3.54"/><path class="cls-3" d="M160.89,56.73c1.92.32,3.84-.63,5.77-.5a7.23,7.23,0,0,0-3.32,1.41"/><path class="cls-3" d="M149.39,68.36a21.16,21.16,0,0,0,5-1.07,6.9,6.9,0,0,0-2.75,1.12"/><path class="cls-3" d="M156.68,74a7,7,0,0,0,3.39-2.24l-1.17,3.5"/><path class="cls-3" d="M164.89,87.19l3.62-1.41a4.38,4.38,0,0,0-1.76,1.76"/><path class="cls-3" d="M159.35,102.62a15.24,15.24,0,0,0,2.78-2.48l-2,2.3"/><path class="cls-3" d="M151.61,113.66h2.69l-2.08.54"/><path class="cls-3" d="M129.08,33.13a9.25,9.25,0,0,0,1.29-4.7,39.13,39.13,0,0,1-.13,7.26"/><path class="cls-3" d="M111.34,29.54a26.57,26.57,0,0,0-.62,5.33"/><path class="cls-3" d="M82.9,166.82a47,47,0,0,1,10.24-1.1"/><path class="cls-1" d="M139.14,137.72c-.8,2.23-1.45,2.17-3.15,5.93-.27.6-.84,1.58-2,3.56a5.58,5.58,0,0,1-1.18,1.58,6.39,6.39,0,0,1-2.36,1.19c-1.32.45-2.08.71-2.36.39s.22-1.14.79-2.77c.21-.6.4-1.45.78-3.16a46.76,46.76,0,0,0,.79-7.9c.29-5.74,0-5.53.39-7.11s.94-2.61.79-4.35-.81-2.36-.39-3.16c.71-1.36,3.65-1.71,4.72-.6.48.49.26.94.79,2.18a8.42,8.42,0,0,0,1.57,2.37C140.09,128,140.7,133.37,139.14,137.72Z"/><path class="cls-5" d="M135.56,129.52l.48,3.36a12.42,12.42,0,0,1,.15,3.7,12.7,12.7,0,0,1-1.91,4.37L133,143.14a5.25,5.25,0,0,1-1.29,1.62,1.79,1.79,0,0,1-1.95.23"/><path class="cls-5" d="M130.26,139.15a4.93,4.93,0,0,0,2.19-2.51,3.39,3.39,0,0,0,.17-2.13,2.07,2.07,0,0,0-1.47-1.45"/><path class="cls-3" d="M133.61,124.92l2.7,2.38"/><path class="cls-1" d="M46.46,137.53c.27,1.28.71,2.83,1.57,5.92a26.07,26.07,0,0,1,1.18,5.14c.19,2,.33,3.48-.39,3.95-1.65,1.09-6.66-3.91-7.08-4.34-2.67-2.7-2.19-3.32-6.69-9.09-1.52-2-2-2.4-2.37-3.56-.75-2.31.18-3.31.79-7.9s.05-6.06,1.58-7.91c.79-1,2.09-1.92,2.75-1.58,1,.52-.73,3.34.79,5.93.71,1.22,1.69,1.63,2,3.16.19,1.07-.23,1.25,0,2,.54,1.75,3.14,1.3,4.72,3.16C46.05,133.3,45.63,133.64,46.46,137.53Z"/><path class="cls-3" d="M37.24,124.7,36.58,130a4.71,4.71,0,0,1-.51,1.89"/><path class="cls-3" d="M38.82,130.27a14,14,0,0,0,3.4-1.19"/><path class="cls-3" d="M40.46,131.2a6.17,6.17,0,0,1-.21,1.71,8.47,8.47,0,0,0-.39,1.71c0,.29,0,.59,0,.88a3.55,3.55,0,0,1-.18,1.12"/><path class="cls-3" d="M36.85,137.83A6.56,6.56,0,0,1,40,139.35c.19.17.52.36.68.15a26.13,26.13,0,0,1,4,4.18,7.81,7.81,0,0,0,1.7,1.83,2.79,2.79,0,0,0-.15-2.37c-.35-.75-.85-1.41-1.16-2.17a9,9,0,0,1-.15-5,1.91,1.91,0,0,1,.29-.88.67.67,0,0,1,.82-.24l0,.34"/><path class="cls-3" d="M131.39,132.82a3.21,3.21,0,0,1,1.16.93,3.1,3.1,0,0,1,.33,1.71,5.54,5.54,0,0,1,0,.71,5.66,5.66,0,0,1-2.22,3.28"/><path class="cls-3" d="M135.13,129.76l.43,4.05a10.92,10.92,0,0,1,.05,2.91,5.62,5.62,0,0,1-.16.71,11.06,11.06,0,0,1-1.18,2.42l-2,3.39a4.63,4.63,0,0,1-.39.59,2.38,2.38,0,0,1-1.86.84"/></g></g></svg>